<svg width="59" height="73" viewBox="0 0 59 73" fill="none" xmlns="http://www.w3.org/2000/svg">
    <path d="M29.5 36.1294C31.2823 36.1294 32.8034 35.4964 34.0633 34.2303C35.3232 32.9643 35.9531 31.4357 35.9531 29.6447C35.9531 27.8536 35.3232 26.3251 34.0633 25.059C32.8034 23.7929 31.2823 23.1599 29.5 23.1599C27.7177 23.1599 26.1966 23.7929 24.9367 25.059C23.6768 26.3251 23.0469 27.8536 23.0469 29.6447C23.0469 31.4357 23.6768 32.9643 24.9367 34.2303C26.1966 35.4964 27.7177 36.1294 29.5 36.1294ZM29.5922 73C29.162 73 28.7625 72.9382 28.3937 72.8147C28.025 72.6912 27.687 72.5059 27.3797 72.2589C18.2224 64.1684 11.3698 56.6646 6.82187 49.7475C2.27396 42.8304 0 36.3765 0 30.3858C0 21.1218 2.96536 13.7415 8.89609 8.24492C14.8268 2.74831 21.6948 0 29.5 0C37.3052 0 44.1732 2.74831 50.1039 8.24492C56.0346 13.7415 59 21.1218 59 30.3858C59 36.3765 56.726 42.8304 52.1781 49.7475C47.6302 56.6646 40.7776 64.1684 31.6203 72.2589C31.313 72.5059 30.9904 72.6912 30.6523 72.8147C30.3143 72.9382 29.9609 73 29.5922 73Z" fill="#FF4820" />
</svg>
    